<svg xmlns="http://www.w3.org/2000/svg" width="21" height="21" viewBox="0 0 21 21" fill="none">
  <path d="M18.5317 6.1352L14.8657 2.46922C14.7591 2.36257 14.6325 2.27797 14.4931 2.22024C14.3538 2.16252 14.2044 2.13281 14.0536 2.13281C13.9028 2.13281 13.7534 2.16252 13.6141 2.22024C13.4747 2.27797 13.3481 2.36257 13.2415 2.46922L3.12539 12.5845C3.01853 12.691 2.9338 12.8176 2.87608 12.9569C2.81836 13.0963 2.78878 13.2457 2.78906 13.3966V17.0626C2.78906 17.3672 2.91006 17.6593 3.12543 17.8747C3.34081 18.09 3.63292 18.211 3.9375 18.211H17.7188C17.8493 18.211 17.9745 18.1592 18.0668 18.0669C18.1591 17.9746 18.2109 17.8494 18.2109 17.7188C18.2109 17.5883 18.1591 17.4631 18.0668 17.3708C17.9745 17.2785 17.8493 17.2266 17.7188 17.2266H9.06363L18.5317 7.75942C18.6383 7.65277 18.7229 7.52617 18.7807 7.38682C18.8384 7.24748 18.8681 7.09813 18.8681 6.94731C18.8681 6.79649 18.8384 6.64714 18.7807 6.50779C18.7229 6.36845 18.6383 6.24184 18.5317 6.1352ZM7.67156 17.2266H3.9375C3.89399 17.2266 3.85226 17.2094 3.82149 17.1786C3.79072 17.1478 3.77344 17.1061 3.77344 17.0626V13.3966C3.77362 13.3532 3.79103 13.3116 3.82184 13.2809L11.1563 5.94653L15.0544 9.84383L7.67156 17.2266ZM17.8352 7.06297L15.75 9.14821L11.8527 5.25008L13.9371 3.16567C13.9523 3.15042 13.9704 3.13831 13.9904 3.13006C14.0103 3.1218 14.0316 3.11755 14.0532 3.11755C14.0747 3.11755 14.0961 3.1218 14.116 3.13006C14.1359 3.13831 14.154 3.15042 14.1693 3.16567L17.8352 6.83083C17.8505 6.84606 17.8626 6.86416 17.8708 6.88407C17.8791 6.90399 17.8834 6.92534 17.8834 6.9469C17.8834 6.96846 17.8791 6.98981 17.8708 7.00973C17.8626 7.02964 17.8505 7.04774 17.8352 7.06297Z" fill="#333333"/>
</svg>