<svg xmlns="http://www.w3.org/2000/svg" width="17" height="24" viewBox="0 0 17 24" fill="none">
  <path fill-rule="evenodd" clip-rule="evenodd" d="M3.74891 16.033L1.39964 21.2629C1.35476 21.3628 1.36792 21.4792 1.43396 21.5667C1.50001 21.6541 1.60844 21.6985 1.71683 21.6826L4.1714 21.3225L5.53254 23.3966C5.59264 23.4882 5.6979 23.5397 5.8071 23.5311C5.91635 23.5224 6.01211 23.4549 6.05699 23.3549L8.50019 17.916L10.9434 23.3549C10.9883 23.4549 11.084 23.5224 11.1933 23.5311C11.3025 23.5397 11.4077 23.4882 11.4678 23.3966L12.829 21.3225L15.2835 21.6826C15.3919 21.6985 15.5004 21.6541 15.5664 21.5667C15.6325 21.4792 15.6456 21.3628 15.6007 21.2629L13.2515 16.033C15.5171 14.5039 17.0082 11.9127 17.0082 8.97602C17.0082 4.28032 13.1959 0.468018 8.50019 0.468018C3.80449 0.468018 -0.0078125 4.28032 -0.0078125 8.97602C-0.0078125 11.9127 1.48326 14.5039 3.74891 16.033ZM12.7378 16.3538C11.6143 17.0009 10.3293 17.3989 8.95844 17.4719L11.2664 22.6099L12.4323 20.8334C12.4964 20.7358 12.6112 20.6842 12.7267 20.7011L14.8292 21.0095L12.7378 16.3538ZM4.26256 16.3538L2.1712 21.0095L4.27369 20.7011C4.38918 20.6842 4.504 20.7358 4.56803 20.8334L5.73395 22.6099L8.04193 17.4719C6.67115 17.3991 5.38595 17.001 4.26256 16.3538ZM8.50019 1.06802C12.8647 1.06802 16.4082 4.61147 16.4082 8.97602C16.4082 13.3406 12.8647 16.884 8.50019 16.884C4.13564 16.884 0.592188 13.3406 0.592188 8.97602C0.592188 4.61147 4.13564 1.06802 8.50019 1.06802ZM8.50019 1.89952C4.59457 1.89952 1.42369 5.0704 1.42369 8.97602C1.42369 12.8816 4.59457 16.0525 8.50019 16.0525C12.4058 16.0525 15.5767 12.8816 15.5767 8.97602C15.5767 5.0704 12.4058 1.89952 8.50019 1.89952ZM8.50019 2.49952C12.0747 2.49952 14.9767 5.40155 14.9767 8.97602C14.9767 12.5505 12.0747 15.4525 8.50019 15.4525C4.92572 15.4525 2.02369 12.5505 2.02369 8.97602C2.02369 5.40155 4.92572 2.49952 8.50019 2.49952ZM8.77302 4.04843C8.7242 3.94168 8.6176 3.87319 8.50019 3.87319C8.38278 3.87319 8.27617 3.94168 8.22736 4.04843L6.95238 6.83757L3.90577 7.18826C3.78913 7.2017 3.69102 7.28191 3.65473 7.3936C3.61849 7.50525 3.65065 7.62779 3.73715 7.70723L5.99574 9.7817L5.38782 12.7876C5.36454 12.9027 5.41057 13.0207 5.50556 13.0897C5.60056 13.1587 5.72704 13.166 5.82932 13.1083L8.50019 11.6013L11.1711 13.1083C11.2733 13.166 11.3998 13.1587 11.4948 13.0897C11.5898 13.0207 11.6358 12.9027 11.6126 12.7876L11.0046 9.7817L13.2632 7.70723C13.3497 7.62779 13.3819 7.50525 13.3456 7.3936C13.3094 7.28191 13.2112 7.2017 13.0946 7.18826L10.048 6.83757L8.77302 4.04843ZM8.50019 4.89477L9.5727 7.24096C9.61638 7.33653 9.70686 7.40224 9.81121 7.41429L12.374 7.7093L10.4741 9.45429C10.3967 9.52538 10.3622 9.63175 10.3829 9.73471L10.8943 12.2632L8.6476 10.9955C8.55611 10.9439 8.44427 10.9439 8.35278 10.9955L6.10604 12.2632L6.61744 9.73471C6.63822 9.63175 6.60366 9.52538 6.52628 9.45429L4.62635 7.7093L7.18916 7.41429C7.29352 7.40224 7.384 7.33653 7.42768 7.24096L8.50019 4.89477Z" fill="black"/>
</svg>