<svg width="24" height="24" viewBox="0 0 24 24" fill="none" xmlns="http://www.w3.org/2000/svg">
<path d="M2.66663 11.6795C2.66663 9.86914 2.66663 8.96396 3.03257 8.16831C3.39852 7.37266 4.08578 6.78358 5.46029 5.60543L6.79363 4.46257C9.27805 2.33306 10.5203 1.26831 12 1.26831C13.4797 1.26831 14.7219 2.33306 17.2063 4.46257L18.5396 5.60543C19.9141 6.78358 20.6014 7.37266 20.9673 8.16831C21.3333 8.96396 21.3333 9.86914 21.3333 11.6795V17.3333C21.3333 19.8475 21.3333 21.1046 20.5522 21.8856C19.7712 22.6667 18.5141 22.6667 16 22.6667H7.99996C5.4858 22.6667 4.22872 22.6667 3.44767 21.8856C2.66663 21.1046 2.66663 19.8475 2.66663 17.3333V11.6795Z" stroke="#333333"/>
<path d="M15.3333 22.6667V15.6667C15.3333 15.1144 14.8856 14.6667 14.3333 14.6667H9.66663C9.11434 14.6667 8.66663 15.1144 8.66663 15.6667V22.6667" stroke="#333333" stroke-linecap="round" stroke-linejoin="round"/>
</svg>
