<svg width="33" height="24" viewBox="0 0 33 24" fill="none" xmlns="http://www.w3.org/2000/svg">
<path d="M19.7274 20.4471C19.2716 19.1713 18.2672 18.0439 16.8701 17.2399C15.4729 16.4358 13.7611 16 12 16C10.2389 16 8.52706 16.4358 7.12991 17.2399C5.73276 18.0439 4.72839 19.1713 4.27259 20.4471" stroke="#333333" stroke-linecap="round"/>
<circle cx="12" cy="8" r="4" stroke="#333333" stroke-linecap="round"/>
<path d="M29.2615 20.8912C28.8627 19.7749 27.9838 18.7884 26.7613 18.0849C25.5388 17.3813 24.0409 17 22.5 17C20.9591 17 19.4612 17.3813 18.2387 18.0849C17.0162 18.7884 16.1373 19.7749 15.7385 20.8912" stroke="#333333" stroke-linecap="round"/>
<circle cx="22.5" cy="10" r="3.5" stroke="#333333" stroke-linecap="round"/>
</svg>
