<svg xmlns="http://www.w3.org/2000/svg" width="21" height="21" viewBox="0 0 21 21" fill="none">
  <path d="M13.7812 12.4686C13.7812 12.6427 13.7121 12.8096 13.589 12.9327C13.466 13.0557 13.299 13.1249 13.125 13.1249H7.875C7.70095 13.1249 7.53403 13.0557 7.41096 12.9327C7.28789 12.8096 7.21875 12.6427 7.21875 12.4686C7.21875 12.2946 7.28789 12.1277 7.41096 12.0046C7.53403 11.8815 7.70095 11.8124 7.875 11.8124H13.125C13.299 11.8124 13.466 11.8815 13.589 12.0046C13.7121 12.1277 13.7812 12.2946 13.7812 12.4686ZM13.125 9.18738H7.875C7.70095 9.18738 7.53403 9.25652 7.41096 9.37959C7.28789 9.50266 7.21875 9.66958 7.21875 9.84363C7.21875 10.0177 7.28789 10.1846 7.41096 10.3077C7.53403 10.4307 7.70095 10.4999 7.875 10.4999H13.125C13.299 10.4999 13.466 10.4307 13.589 10.3077C13.7121 10.1846 13.7812 10.0177 13.7812 9.84363C13.7812 9.66958 13.7121 9.50266 13.589 9.37959C13.466 9.25652 13.299 9.18738 13.125 9.18738ZM17.7188 3.93738V17.7186C17.7188 18.0667 17.5805 18.4006 17.3343 18.6467C17.0882 18.8929 16.7543 19.0311 16.4062 19.0311H4.59375C4.24565 19.0311 3.91181 18.8929 3.66567 18.6467C3.41953 18.4006 3.28125 18.0667 3.28125 17.7186V3.93738C3.28125 3.58928 3.41953 3.25545 3.66567 3.0093C3.91181 2.76316 4.24565 2.62488 4.59375 2.62488H7.5682C7.93694 2.21204 8.38871 1.88172 8.89394 1.65557C9.39916 1.42941 9.94646 1.3125 10.5 1.3125C11.0535 1.3125 11.6008 1.42941 12.1061 1.65557C12.6113 1.88172 13.0631 2.21204 13.4318 2.62488H16.4062C16.7543 2.62488 17.0882 2.76316 17.3343 3.0093C17.5805 3.25545 17.7188 3.58928 17.7188 3.93738ZM7.875 5.24988H13.125C13.125 4.55369 12.8484 3.88601 12.3562 3.39373C11.8639 2.90144 11.1962 2.62488 10.5 2.62488C9.80381 2.62488 9.13613 2.90144 8.64384 3.39373C8.15156 3.88601 7.875 4.55369 7.875 5.24988ZM16.4062 3.93738H14.2119C14.3612 4.35887 14.4375 4.80274 14.4375 5.24988V5.90613C14.4375 6.08018 14.3684 6.2471 14.2453 6.37017C14.1222 6.49324 13.9553 6.56238 13.7812 6.56238H7.21875C7.0447 6.56238 6.87778 6.49324 6.75471 6.37017C6.63164 6.2471 6.5625 6.08018 6.5625 5.90613V5.24988C6.56252 4.80274 6.6388 4.35887 6.78809 3.93738H4.59375V17.7186H16.4062V3.93738Z" fill="#333333"/>
</svg>