<svg xmlns="http://www.w3.org/2000/svg" width="24" height="25" viewBox="0 0 24 25" fill="none">
  <path d="M19.8971 9.89714L12.3971 17.3971C12.2917 17.5025 12.1487 17.5616 11.9996 17.5616C11.8506 17.5616 11.7076 17.5025 11.6021 17.3971L4.10214 9.89714C4.00278 9.79051 3.94869 9.64948 3.95126 9.50375C3.95383 9.35802 4.01286 9.21898 4.11592 9.11592C4.21898 9.01287 4.35802 8.95383 4.50375 8.95126C4.64947 8.94869 4.79051 9.00278 4.89714 9.10214L11.9996 16.2037L19.1021 9.10214C19.2088 9.00278 19.3498 8.94869 19.4955 8.95126C19.6413 8.95383 19.7803 9.01287 19.8834 9.11593C19.9864 9.21899 20.0455 9.35803 20.048 9.50375C20.0506 9.64948 19.9965 9.79051 19.8971 9.89714Z" fill="#333333"/>
</svg>