<svg width="28" height="28" viewBox="0 0 28 28" fill="none" xmlns="http://www.w3.org/2000/svg">
<g id="Icon / Back">
<path id="Vector" fill-rule="evenodd" clip-rule="evenodd" d="M26.25 14C26.25 13.7679 26.1578 13.5454 25.9937 13.3813C25.8296 13.2172 25.607 13.125 25.375 13.125L4.73723 13.125L10.2445 7.6195C10.4088 7.4552 10.5011 7.23236 10.5011 7C10.5011 6.76764 10.4088 6.5448 10.2445 6.3805C10.0802 6.2162 9.85733 6.1239 9.62498 6.1239C9.39262 6.1239 9.16978 6.2162 9.00548 6.3805L2.00548 13.3805C1.92399 13.4618 1.85934 13.5583 1.81523 13.6646C1.77112 13.7709 1.74841 13.8849 1.74841 14C1.74841 14.1151 1.77112 14.2291 1.81523 14.3354C1.85934 14.4417 1.92399 14.5382 2.00548 14.6195L9.00548 21.6195C9.08683 21.7009 9.18341 21.7654 9.28971 21.8094C9.396 21.8534 9.50993 21.8761 9.62498 21.8761C9.85734 21.8761 10.0802 21.7838 10.2445 21.6195C10.4088 21.4552 10.5011 21.2324 10.5011 21C10.5011 20.7676 10.4088 20.5448 10.2445 20.3805L4.73723 14.875L25.375 14.875C25.607 14.875 25.8296 14.7828 25.9937 14.6187C26.1578 14.4546 26.25 14.2321 26.25 14Z" fill="black"/>
</g>
</svg>
